<svg width="1207" height="1207" viewBox="0 0 1207 1207" fill="none" xmlns="http://www.w3.org/2000/svg">
<g clip-path="url(#clip0_482_404)">
<path d="M176.976 0H1030.6C1042.02 1.9145 1049.9 1.86448 1062.08 4.65449C1106.76 15.0991 1146.1 41.4884 1172.7 78.8717C1187.7 99.973 1198.17 123.949 1203.45 149.291C1205 157.041 1205.56 166.538 1207 173.335V1034.18C1204.48 1046.93 1204.48 1054.66 1200.71 1068.7C1188.77 1112.22 1161.55 1149.99 1124.03 1175.07C1102.58 1189.48 1078.37 1199.26 1052.94 1203.8C1048.03 1204.65 1031.24 1206.16 1028.22 1207H178.747C174.487 1205.9 158.238 1204.38 151.618 1203.12C125.148 1197.98 100.114 1187.14 78.2528 1171.36C37.3033 1141.83 9.99021 1097.04 2.49323 1047.11C-0.221384 1029.42 0.48553 1007.13 0.49287 988.95L0.496688 911.591L0.505185 637.3L0.492669 320.455L0.489209 224.694C0.489824 206.812 -0.242912 182.216 1.69688 164.961C5.57984 132.841 17.689 102.268 36.8522 76.2007C62.4015 41.4878 99.129 16.6356 140.853 5.82684C155.121 2.27435 163.207 2.1069 176.976 0Z" fill="#FEFEFE"/>
<path d="M182.322 45.6321C202.525 44.8944 226.308 45.4804 246.753 45.4813L366.915 45.4824L734.072 45.4779L935.012 45.4616L994.19 45.4452C1009.14 45.4439 1024.75 44.9521 1039.53 46.9273C1065.83 50.5744 1090.57 61.5858 1110.88 78.6913C1139.85 102.885 1157.92 137.673 1161.06 175.284C1162.34 190.519 1161.55 214.697 1161.54 230.931L1161.51 332.749L1161.53 658.941L1161.54 915.069V990.606C1161.54 1004.32 1162.14 1024.15 1160.49 1037.27C1157.01 1064.72 1145.54 1090.55 1127.51 1111.54C1100.93 1142.58 1067.1 1157.77 1026.9 1160.95C1002.24 1161.28 977.576 1161.36 952.905 1161.21L828.239 1161.21L454.517 1161.2L264.591 1161.18L210.291 1161.22C195.857 1161.22 180.878 1161.61 166.608 1159.53C140.09 1155.55 115.258 1144.09 95.0241 1126.49C66.5665 1101.94 49.0877 1067.03 46.4661 1029.53C45.2265 1011.43 45.9943 986.546 46.0115 968.005L46.0252 859.705L46.0095 517.755L46.0077 283.943L46.0037 215.188C46.0002 200.611 45.4662 182.134 47.3796 167.956C51.1688 140.402 62.9962 114.575 81.3829 93.7051C108.124 63.269 142.384 48.2632 182.322 45.6321Z" fill="#0F0F0E"/>
<path d="M480.061 286.461L587.98 286.47L505.025 682.309L668.813 682.267L710.987 682.261C717.959 682.261 732.38 681.796 738.604 683.275C738.987 687.401 734.361 707.244 733.3 712.254L722.043 764.689C727.477 764.883 732.905 764.978 738.339 764.978C756.544 724.512 777.065 680.623 796.39 640.688C799.891 655.41 802.903 673.792 805.861 688.862C810.889 714.487 816.098 740.507 820.766 766.18C866.205 766.144 912.812 767.323 958.339 767.854L836.001 844.776C838.087 855.072 840.091 865.38 842.018 875.7C844.37 885.306 846.615 898.967 848.578 909.045L860.365 970.144C849.662 961.905 837.751 951.585 827.22 942.916L763.475 890.451C725.444 915.522 683.576 940.717 644.796 965.205C651.497 952.163 658.534 935.985 664.882 922.383L702.983 840.604C693.907 833.555 683.959 824.974 675.001 817.601L620.362 772.568L378.661 772.557C383.705 752.059 388.288 726.752 392.657 705.824L420.138 574.189L459.022 387.887C466.012 354.391 473.616 320.007 480.061 286.461Z" fill="#FEFEFE"/>
<path d="M789.318 696.973C791.328 700.591 804.629 773.76 806.427 783.06L899.916 784.274L816.841 836.585L834.274 926.373C811.366 908.345 787.567 887.859 764.83 869.306L757.74 873.72C750.627 878.624 740.749 884.453 733.235 889.179L685.804 918.995C689.334 910.048 695.109 898.52 699.253 889.651L724.3 835.866L658.062 781.174C687.966 780.791 719.273 782.04 749.46 782.146C762.378 754.818 775.733 723.576 789.318 696.973Z" fill="#0F0F0E"/>
</g>
<defs>
<clipPath id="clip0_482_404">
<rect width="1207" height="1207" fill="white"/>
</clipPath>
</defs>
</svg>
